<svg width="280" height="280" viewBox="0 0 280 280" fill="none" xmlns="http://www.w3.org/2000/svg">
<path d="M40 40H88.5597C115.378 40 137.119 61.7409 137.119 88.5597C137.119 115.378 115.378 137.119 88.5597 137.119H40V40Z" fill="black"/>
<path d="M40 195.555C40 166.464 63.5833 142.881 92.6749 142.881H137.119V240H40V195.555Z" fill="black"/>
<path d="M142.881 191.44C142.881 164.622 164.622 142.881 191.44 142.881H240V240H191.44C164.622 240 142.881 218.259 142.881 191.44Z" fill="black"/>
<path d="M142.881 40H240V84.4445C240 113.536 216.417 137.119 187.325 137.119H142.881V40Z" fill="black"/>
</svg>
